<?xml version="1.0" encoding="UTF-8" standalone="no"?>
<!DOCTYPE svg PUBLIC "-//W3C//DTD SVG 1.1//EN"
 "http://www.w3.org/Graphics/SVG/1.1/DTD/svg11.dtd">
<!-- Generated by graphviz version 2.36.0 (20140111.2315)
 -->
<!-- Title: controllers_diagram Pages: 1 -->
<svg width="849pt" height="885pt"
 viewBox="0.00 0.00 849.00 885.00" xmlns="http://www.w3.org/2000/svg" xmlns:xlink="http://www.w3.org/1999/xlink">
<g id="graph0" class="graph" transform="scale(1 1) rotate(0) translate(4 881)">
<title>controllers_diagram</title>
<polygon fill="white" stroke="none" points="-4,4 -4,-881 845,-881 845,4 -4,4"/>
<!-- ApplicationController -->
<g id="node2" class="node"><title>ApplicationController</title>
<path fill="none" stroke="black" d="M12,-522.5C12,-522.5 124,-522.5 124,-522.5 130,-522.5 136,-528.5 136,-534.5 136,-534.5 136,-604.5 136,-604.5 136,-610.5 130,-616.5 124,-616.5 124,-616.5 12,-616.5 12,-616.5 6,-616.5 0,-610.5 0,-604.5 0,-604.5 0,-534.5 0,-534.5 0,-528.5 6,-522.5 12,-522.5"/>
<text text-anchor="middle" x="68" y="-601.3" font-family="Times,serif" font-size="14.00">ApplicationController</text>
<polyline fill="none" stroke="black" points="0,-593.5 136,-593.5 "/>
<polyline fill="none" stroke="black" points="0,-569.5 136,-569.5 "/>
<polyline fill="none" stroke="black" points="0,-545.5 136,-545.5 "/>
<text text-anchor="start" x="8" y="-530.3" font-family="Times,serif" font-size="14.00">_layout</text>
</g>
<!-- Users::RegistrationsController -->
<g id="node3" class="node"><title>Users::RegistrationsController</title>
<path fill="none" stroke="black" d="M480,-0.5C480,-0.5 638,-0.5 638,-0.5 644,-0.5 650,-6.5 650,-12.5 650,-12.5 650,-96.5 650,-96.5 650,-102.5 644,-108.5 638,-108.5 638,-108.5 480,-108.5 480,-108.5 474,-108.5 468,-102.5 468,-96.5 468,-96.5 468,-12.5 468,-12.5 468,-6.5 474,-0.5 480,-0.5"/>
<text text-anchor="middle" x="559" y="-93.3" font-family="Times,serif" font-size="14.00">Users::RegistrationsController</text>
<polyline fill="none" stroke="black" points="468,-85.5 650,-85.5 "/>
<text text-anchor="start" x="476" y="-70.3" font-family="Times,serif" font-size="14.00">create</text>
<polyline fill="none" stroke="black" points="468,-62.5 650,-62.5 "/>
<polyline fill="none" stroke="black" points="468,-38.5 650,-38.5 "/>
<text text-anchor="start" x="476" y="-23.3" font-family="Times,serif" font-size="14.00">_layout</text>
<text text-anchor="start" x="476" y="-8.3" font-family="Times,serif" font-size="14.00">registration_params</text>
</g>
<!-- Users::SessionsController -->
<g id="node4" class="node"><title>Users::SessionsController</title>
<path fill="none" stroke="black" d="M696,-18.5C696,-18.5 829,-18.5 829,-18.5 835,-18.5 841,-24.5 841,-30.5 841,-30.5 841,-100.5 841,-100.5 841,-106.5 835,-112.5 829,-112.5 829,-112.5 696,-112.5 696,-112.5 690,-112.5 684,-106.5 684,-100.5 684,-100.5 684,-30.5 684,-30.5 684,-24.5 690,-18.5 696,-18.5"/>
<text text-anchor="middle" x="762.5" y="-97.3" font-family="Times,serif" font-size="14.00">Users::SessionsController</text>
<polyline fill="none" stroke="black" points="684,-89.5 841,-89.5 "/>
<polyline fill="none" stroke="black" points="684,-65.5 841,-65.5 "/>
<polyline fill="none" stroke="black" points="684,-41.5 841,-41.5 "/>
<text text-anchor="start" x="692" y="-26.3" font-family="Times,serif" font-size="14.00">_layout</text>
</g>
<!-- User::GroupsController -->
<g id="node5" class="node"><title>User::GroupsController</title>
<path fill="none" stroke="black" d="M570,-144.5C570,-144.5 691,-144.5 691,-144.5 697,-144.5 703,-150.5 703,-156.5 703,-156.5 703,-345.5 703,-345.5 703,-351.5 697,-357.5 691,-357.5 691,-357.5 570,-357.5 570,-357.5 564,-357.5 558,-351.5 558,-345.5 558,-345.5 558,-156.5 558,-156.5 558,-150.5 564,-144.5 570,-144.5"/>
<text text-anchor="middle" x="630.5" y="-342.3" font-family="Times,serif" font-size="14.00">User::GroupsController</text>
<polyline fill="none" stroke="black" points="558,-334.5 703,-334.5 "/>
<text text-anchor="start" x="566" y="-319.3" font-family="Times,serif" font-size="14.00">create</text>
<text text-anchor="start" x="566" y="-304.3" font-family="Times,serif" font-size="14.00">destroy</text>
<text text-anchor="start" x="566" y="-289.3" font-family="Times,serif" font-size="14.00">edit</text>
<text text-anchor="start" x="566" y="-274.3" font-family="Times,serif" font-size="14.00">index</text>
<text text-anchor="start" x="566" y="-259.3" font-family="Times,serif" font-size="14.00">new</text>
<text text-anchor="start" x="566" y="-244.3" font-family="Times,serif" font-size="14.00">show</text>
<text text-anchor="start" x="566" y="-229.3" font-family="Times,serif" font-size="14.00">update</text>
<polyline fill="none" stroke="black" points="558,-221.5 703,-221.5 "/>
<polyline fill="none" stroke="black" points="558,-197.5 703,-197.5 "/>
<text text-anchor="start" x="566" y="-182.3" font-family="Times,serif" font-size="14.00">_layout</text>
<text text-anchor="start" x="566" y="-167.3" font-family="Times,serif" font-size="14.00">set_user_group</text>
<text text-anchor="start" x="566" y="-152.3" font-family="Times,serif" font-size="14.00">user_group_params</text>
</g>
<!-- User::RolesController -->
<g id="node6" class="node"><title>User::RolesController</title>
<path fill="none" stroke="black" d="M570,-396.5C570,-396.5 682,-396.5 682,-396.5 688,-396.5 694,-402.5 694,-408.5 694,-408.5 694,-597.5 694,-597.5 694,-603.5 688,-609.5 682,-609.5 682,-609.5 570,-609.5 570,-609.5 564,-609.5 558,-603.5 558,-597.5 558,-597.5 558,-408.5 558,-408.5 558,-402.5 564,-396.5 570,-396.5"/>
<text text-anchor="middle" x="626" y="-594.3" font-family="Times,serif" font-size="14.00">User::RolesController</text>
<polyline fill="none" stroke="black" points="558,-586.5 694,-586.5 "/>
<text text-anchor="start" x="566" y="-571.3" font-family="Times,serif" font-size="14.00">create</text>
<text text-anchor="start" x="566" y="-556.3" font-family="Times,serif" font-size="14.00">destroy</text>
<text text-anchor="start" x="566" y="-541.3" font-family="Times,serif" font-size="14.00">edit</text>
<text text-anchor="start" x="566" y="-526.3" font-family="Times,serif" font-size="14.00">index</text>
<text text-anchor="start" x="566" y="-511.3" font-family="Times,serif" font-size="14.00">new</text>
<text text-anchor="start" x="566" y="-496.3" font-family="Times,serif" font-size="14.00">show</text>
<text text-anchor="start" x="566" y="-481.3" font-family="Times,serif" font-size="14.00">update</text>
<polyline fill="none" stroke="black" points="558,-473.5 694,-473.5 "/>
<polyline fill="none" stroke="black" points="558,-449.5 694,-449.5 "/>
<text text-anchor="start" x="566" y="-434.3" font-family="Times,serif" font-size="14.00">_layout</text>
<text text-anchor="start" x="566" y="-419.3" font-family="Times,serif" font-size="14.00">set_user_role</text>
<text text-anchor="start" x="566" y="-404.3" font-family="Times,serif" font-size="14.00">user_role_params</text>
</g>
<!-- StrainsController -->
<g id="node7" class="node"><title>StrainsController</title>
<path fill="none" stroke="black" d="M426,-594.5C426,-594.5 512,-594.5 512,-594.5 518,-594.5 524,-600.5 524,-606.5 524,-606.5 524,-825.5 524,-825.5 524,-831.5 518,-837.5 512,-837.5 512,-837.5 426,-837.5 426,-837.5 420,-837.5 414,-831.5 414,-825.5 414,-825.5 414,-606.5 414,-606.5 414,-600.5 420,-594.5 426,-594.5"/>
<text text-anchor="middle" x="469" y="-822.3" font-family="Times,serif" font-size="14.00">StrainsController</text>
<polyline fill="none" stroke="black" points="414,-814.5 524,-814.5 "/>
<text text-anchor="start" x="422" y="-799.3" font-family="Times,serif" font-size="14.00">create</text>
<text text-anchor="start" x="422" y="-784.3" font-family="Times,serif" font-size="14.00">destroy</text>
<text text-anchor="start" x="422" y="-769.3" font-family="Times,serif" font-size="14.00">lot</text>
<text text-anchor="start" x="422" y="-754.3" font-family="Times,serif" font-size="14.00">lot=</text>
<text text-anchor="start" x="422" y="-739.3" font-family="Times,serif" font-size="14.00">strain</text>
<text text-anchor="start" x="422" y="-724.3" font-family="Times,serif" font-size="14.00">strain=</text>
<text text-anchor="start" x="422" y="-709.3" font-family="Times,serif" font-size="14.00">strains</text>
<text text-anchor="start" x="422" y="-694.3" font-family="Times,serif" font-size="14.00">strains=</text>
<text text-anchor="start" x="422" y="-679.3" font-family="Times,serif" font-size="14.00">update</text>
<polyline fill="none" stroke="black" points="414,-671.5 524,-671.5 "/>
<polyline fill="none" stroke="black" points="414,-647.5 524,-647.5 "/>
<text text-anchor="start" x="422" y="-632.3" font-family="Times,serif" font-size="14.00">_layout</text>
<text text-anchor="start" x="422" y="-617.3" font-family="Times,serif" font-size="14.00">id_param</text>
<text text-anchor="start" x="422" y="-602.3" font-family="Times,serif" font-size="14.00">strain_params</text>
</g>
<!-- DashboardController -->
<g id="node8" class="node"><title>DashboardController</title>
<path fill="none" stroke="black" d="M30,-396.5C30,-396.5 137,-396.5 137,-396.5 143,-396.5 149,-402.5 149,-408.5 149,-408.5 149,-477.5 149,-477.5 149,-483.5 143,-489.5 137,-489.5 137,-489.5 30,-489.5 30,-489.5 24,-489.5 18,-483.5 18,-477.5 18,-477.5 18,-408.5 18,-408.5 18,-402.5 24,-396.5 30,-396.5"/>
<text text-anchor="middle" x="83.5" y="-474.3" font-family="Times,serif" font-size="14.00">DashboardController</text>
<polyline fill="none" stroke="black" points="18,-466.5 149,-466.5 "/>
<text text-anchor="start" x="26" y="-451.3" font-family="Times,serif" font-size="14.00">home</text>
<polyline fill="none" stroke="black" points="18,-443.5 149,-443.5 "/>
<polyline fill="none" stroke="black" points="18,-419.5 149,-419.5 "/>
<text text-anchor="start" x="26" y="-404.3" font-family="Times,serif" font-size="14.00">_layout</text>
</g>
<!-- RootController -->
<g id="node9" class="node"><title>RootController</title>
<path fill="none" stroke="black" d="M12,-702.5C12,-702.5 86,-702.5 86,-702.5 92,-702.5 98,-708.5 98,-714.5 98,-714.5 98,-783.5 98,-783.5 98,-789.5 92,-795.5 86,-795.5 86,-795.5 12,-795.5 12,-795.5 6,-795.5 0,-789.5 0,-783.5 0,-783.5 0,-714.5 0,-714.5 0,-708.5 6,-702.5 12,-702.5"/>
<text text-anchor="middle" x="49" y="-780.3" font-family="Times,serif" font-size="14.00">RootController</text>
<polyline fill="none" stroke="black" points="0,-772.5 98,-772.5 "/>
<text text-anchor="start" x="8" y="-757.3" font-family="Times,serif" font-size="14.00">redirect</text>
<polyline fill="none" stroke="black" points="0,-749.5 98,-749.5 "/>
<polyline fill="none" stroke="black" points="0,-725.5 98,-725.5 "/>
<text text-anchor="start" x="8" y="-710.3" font-family="Times,serif" font-size="14.00">_layout</text>
</g>
<!-- UsersController -->
<g id="node10" class="node"><title>UsersController</title>
<path fill="none" stroke="black" d="M282,-648.5C282,-648.5 361,-648.5 361,-648.5 367,-648.5 373,-654.5 373,-660.5 373,-660.5 373,-849.5 373,-849.5 373,-855.5 367,-861.5 361,-861.5 361,-861.5 282,-861.5 282,-861.5 276,-861.5 270,-855.5 270,-849.5 270,-849.5 270,-660.5 270,-660.5 270,-654.5 276,-648.5 282,-648.5"/>
<text text-anchor="middle" x="321.5" y="-846.3" font-family="Times,serif" font-size="14.00">UsersController</text>
<polyline fill="none" stroke="black" points="270,-838.5 373,-838.5 "/>
<text text-anchor="start" x="278" y="-823.3" font-family="Times,serif" font-size="14.00">create</text>
<text text-anchor="start" x="278" y="-808.3" font-family="Times,serif" font-size="14.00">destroy</text>
<text text-anchor="start" x="278" y="-793.3" font-family="Times,serif" font-size="14.00">update</text>
<text text-anchor="start" x="278" y="-778.3" font-family="Times,serif" font-size="14.00">user</text>
<text text-anchor="start" x="278" y="-763.3" font-family="Times,serif" font-size="14.00">user=</text>
<text text-anchor="start" x="278" y="-748.3" font-family="Times,serif" font-size="14.00">users</text>
<text text-anchor="start" x="278" y="-733.3" font-family="Times,serif" font-size="14.00">users=</text>
<polyline fill="none" stroke="black" points="270,-725.5 373,-725.5 "/>
<polyline fill="none" stroke="black" points="270,-701.5 373,-701.5 "/>
<text text-anchor="start" x="278" y="-686.3" font-family="Times,serif" font-size="14.00">_layout</text>
<text text-anchor="start" x="278" y="-671.3" font-family="Times,serif" font-size="14.00">id_param</text>
<text text-anchor="start" x="278" y="-656.3" font-family="Times,serif" font-size="14.00">user_params</text>
</g>
<!-- OrdersController -->
<g id="node11" class="node"><title>OrdersController</title>
<path fill="none" stroke="black" d="M84,-54.5C84,-54.5 169,-54.5 169,-54.5 175,-54.5 181,-60.5 181,-66.5 181,-66.5 181,-285.5 181,-285.5 181,-291.5 175,-297.5 169,-297.5 169,-297.5 84,-297.5 84,-297.5 78,-297.5 72,-291.5 72,-285.5 72,-285.5 72,-66.5 72,-66.5 72,-60.5 78,-54.5 84,-54.5"/>
<text text-anchor="middle" x="126.5" y="-282.3" font-family="Times,serif" font-size="14.00">OrdersController</text>
<polyline fill="none" stroke="black" points="72,-274.5 181,-274.5 "/>
<text text-anchor="start" x="80" y="-259.3" font-family="Times,serif" font-size="14.00">create</text>
<text text-anchor="start" x="80" y="-244.3" font-family="Times,serif" font-size="14.00">destroy</text>
<text text-anchor="start" x="80" y="-229.3" font-family="Times,serif" font-size="14.00">order</text>
<text text-anchor="start" x="80" y="-214.3" font-family="Times,serif" font-size="14.00">order=</text>
<text text-anchor="start" x="80" y="-199.3" font-family="Times,serif" font-size="14.00">orders</text>
<text text-anchor="start" x="80" y="-184.3" font-family="Times,serif" font-size="14.00">orders=</text>
<text text-anchor="start" x="80" y="-169.3" font-family="Times,serif" font-size="14.00">update</text>
<polyline fill="none" stroke="black" points="72,-161.5 181,-161.5 "/>
<polyline fill="none" stroke="black" points="72,-137.5 181,-137.5 "/>
<text text-anchor="start" x="80" y="-122.3" font-family="Times,serif" font-size="14.00">_layout</text>
<text text-anchor="start" x="80" y="-107.3" font-family="Times,serif" font-size="14.00">id_param</text>
<text text-anchor="start" x="80" y="-92.3" font-family="Times,serif" font-size="14.00">order_params</text>
<text text-anchor="start" x="80" y="-77.3" font-family="Times,serif" font-size="14.00">sort_column</text>
<text text-anchor="start" x="80" y="-62.3" font-family="Times,serif" font-size="14.00">sort_direction</text>
</g>
<!-- LotsController -->
<g id="node12" class="node"><title>LotsController</title>
<path fill="none" stroke="black" d="M444,-270.5C444,-270.5 516,-270.5 516,-270.5 522,-270.5 528,-276.5 528,-282.5 528,-282.5 528,-546.5 528,-546.5 528,-552.5 522,-558.5 516,-558.5 516,-558.5 444,-558.5 444,-558.5 438,-558.5 432,-552.5 432,-546.5 432,-546.5 432,-282.5 432,-282.5 432,-276.5 438,-270.5 444,-270.5"/>
<text text-anchor="middle" x="480" y="-543.3" font-family="Times,serif" font-size="14.00">LotsController</text>
<polyline fill="none" stroke="black" points="432,-535.5 528,-535.5 "/>
<text text-anchor="start" x="440" y="-520.3" font-family="Times,serif" font-size="14.00">bag</text>
<text text-anchor="start" x="440" y="-505.3" font-family="Times,serif" font-size="14.00">bag=</text>
<text text-anchor="start" x="440" y="-490.3" font-family="Times,serif" font-size="14.00">create</text>
<text text-anchor="start" x="440" y="-475.3" font-family="Times,serif" font-size="14.00">destroy</text>
<text text-anchor="start" x="440" y="-460.3" font-family="Times,serif" font-size="14.00">lot</text>
<text text-anchor="start" x="440" y="-445.3" font-family="Times,serif" font-size="14.00">lot=</text>
<text text-anchor="start" x="440" y="-430.3" font-family="Times,serif" font-size="14.00">lots</text>
<text text-anchor="start" x="440" y="-415.3" font-family="Times,serif" font-size="14.00">lots=</text>
<text text-anchor="start" x="440" y="-400.3" font-family="Times,serif" font-size="14.00">update</text>
<polyline fill="none" stroke="black" points="432,-392.5 528,-392.5 "/>
<polyline fill="none" stroke="black" points="432,-368.5 528,-368.5 "/>
<text text-anchor="start" x="440" y="-353.3" font-family="Times,serif" font-size="14.00">_layout</text>
<text text-anchor="start" x="440" y="-338.3" font-family="Times,serif" font-size="14.00">id_param</text>
<text text-anchor="start" x="440" y="-323.3" font-family="Times,serif" font-size="14.00">lot_params</text>
<text text-anchor="start" x="440" y="-308.3" font-family="Times,serif" font-size="14.00">set_weight</text>
<text text-anchor="start" x="440" y="-293.3" font-family="Times,serif" font-size="14.00">sort_column</text>
<text text-anchor="start" x="440" y="-278.3" font-family="Times,serif" font-size="14.00">sort_direction</text>
</g>
<!-- BagsController -->
<g id="node13" class="node"><title>BagsController</title>
<path fill="none" stroke="black" d="M318,-180.5C318,-180.5 393,-180.5 393,-180.5 399,-180.5 405,-186.5 405,-192.5 405,-192.5 405,-471.5 405,-471.5 405,-477.5 399,-483.5 393,-483.5 393,-483.5 318,-483.5 318,-483.5 312,-483.5 306,-477.5 306,-471.5 306,-471.5 306,-192.5 306,-192.5 306,-186.5 312,-180.5 318,-180.5"/>
<text text-anchor="middle" x="355.5" y="-468.3" font-family="Times,serif" font-size="14.00">BagsController</text>
<polyline fill="none" stroke="black" points="306,-460.5 405,-460.5 "/>
<text text-anchor="start" x="314" y="-445.3" font-family="Times,serif" font-size="14.00">bag</text>
<text text-anchor="start" x="314" y="-430.3" font-family="Times,serif" font-size="14.00">bag=</text>
<text text-anchor="start" x="314" y="-415.3" font-family="Times,serif" font-size="14.00">bags</text>
<text text-anchor="start" x="314" y="-400.3" font-family="Times,serif" font-size="14.00">bags=</text>
<text text-anchor="start" x="314" y="-385.3" font-family="Times,serif" font-size="14.00">create</text>
<text text-anchor="start" x="314" y="-370.3" font-family="Times,serif" font-size="14.00">destroy</text>
<text text-anchor="start" x="314" y="-355.3" font-family="Times,serif" font-size="14.00">jar</text>
<text text-anchor="start" x="314" y="-340.3" font-family="Times,serif" font-size="14.00">jar=</text>
<text text-anchor="start" x="314" y="-325.3" font-family="Times,serif" font-size="14.00">update</text>
<polyline fill="none" stroke="black" points="306,-317.5 405,-317.5 "/>
<polyline fill="none" stroke="black" points="306,-293.5 405,-293.5 "/>
<text text-anchor="start" x="314" y="-278.3" font-family="Times,serif" font-size="14.00">_layout</text>
<text text-anchor="start" x="314" y="-263.3" font-family="Times,serif" font-size="14.00">bag_params</text>
<text text-anchor="start" x="314" y="-248.3" font-family="Times,serif" font-size="14.00">id_param</text>
<text text-anchor="start" x="314" y="-233.3" font-family="Times,serif" font-size="14.00">set_name</text>
<text text-anchor="start" x="314" y="-218.3" font-family="Times,serif" font-size="14.00">set_weight</text>
<text text-anchor="start" x="314" y="-203.3" font-family="Times,serif" font-size="14.00">sort_column</text>
<text text-anchor="start" x="314" y="-188.3" font-family="Times,serif" font-size="14.00">sort_direction</text>
</g>
<!-- InventoryController -->
<g id="node14" class="node"><title>InventoryController</title>
<path fill="none" stroke="black" d="M678,-648.5C678,-648.5 779,-648.5 779,-648.5 785,-648.5 791,-654.5 791,-660.5 791,-660.5 791,-864.5 791,-864.5 791,-870.5 785,-876.5 779,-876.5 779,-876.5 678,-876.5 678,-876.5 672,-876.5 666,-870.5 666,-864.5 666,-864.5 666,-660.5 666,-660.5 666,-654.5 672,-648.5 678,-648.5"/>
<text text-anchor="middle" x="728.5" y="-861.3" font-family="Times,serif" font-size="14.00">InventoryController</text>
<polyline fill="none" stroke="black" points="666,-853.5 791,-853.5 "/>
<text text-anchor="start" x="674" y="-838.3" font-family="Times,serif" font-size="14.00">bags</text>
<text text-anchor="start" x="674" y="-823.3" font-family="Times,serif" font-size="14.00">bags=</text>
<text text-anchor="start" x="674" y="-808.3" font-family="Times,serif" font-size="14.00">download</text>
<text text-anchor="start" x="674" y="-793.3" font-family="Times,serif" font-size="14.00">home</text>
<text text-anchor="start" x="674" y="-778.3" font-family="Times,serif" font-size="14.00">jars</text>
<text text-anchor="start" x="674" y="-763.3" font-family="Times,serif" font-size="14.00">jars=</text>
<text text-anchor="start" x="674" y="-748.3" font-family="Times,serif" font-size="14.00">lots</text>
<text text-anchor="start" x="674" y="-733.3" font-family="Times,serif" font-size="14.00">lots=</text>
<text text-anchor="start" x="674" y="-718.3" font-family="Times,serif" font-size="14.00">plants</text>
<text text-anchor="start" x="674" y="-703.3" font-family="Times,serif" font-size="14.00">plants=</text>
<polyline fill="none" stroke="black" points="666,-695.5 791,-695.5 "/>
<polyline fill="none" stroke="black" points="666,-671.5 791,-671.5 "/>
<text text-anchor="start" x="674" y="-656.3" font-family="Times,serif" font-size="14.00">_layout</text>
</g>
<!-- PlantsController -->
<g id="node15" class="node"><title>PlantsController</title>
<path fill="none" stroke="black" d="M138,-648.5C138,-648.5 219,-648.5 219,-648.5 225,-648.5 231,-654.5 231,-660.5 231,-660.5 231,-834.5 231,-834.5 231,-840.5 225,-846.5 219,-846.5 219,-846.5 138,-846.5 138,-846.5 132,-846.5 126,-840.5 126,-834.5 126,-834.5 126,-660.5 126,-660.5 126,-654.5 132,-648.5 138,-648.5"/>
<text text-anchor="middle" x="178.5" y="-831.3" font-family="Times,serif" font-size="14.00">PlantsController</text>
<polyline fill="none" stroke="black" points="126,-823.5 231,-823.5 "/>
<text text-anchor="start" x="134" y="-808.3" font-family="Times,serif" font-size="14.00">create</text>
<text text-anchor="start" x="134" y="-793.3" font-family="Times,serif" font-size="14.00">destroy</text>
<text text-anchor="start" x="134" y="-778.3" font-family="Times,serif" font-size="14.00">plant</text>
<text text-anchor="start" x="134" y="-763.3" font-family="Times,serif" font-size="14.00">plant=</text>
<text text-anchor="start" x="134" y="-748.3" font-family="Times,serif" font-size="14.00">plants</text>
<text text-anchor="start" x="134" y="-733.3" font-family="Times,serif" font-size="14.00">plants=</text>
<text text-anchor="start" x="134" y="-718.3" font-family="Times,serif" font-size="14.00">update</text>
<polyline fill="none" stroke="black" points="126,-710.5 231,-710.5 "/>
<polyline fill="none" stroke="black" points="126,-686.5 231,-686.5 "/>
<text text-anchor="start" x="134" y="-671.3" font-family="Times,serif" font-size="14.00">_layout</text>
<text text-anchor="start" x="134" y="-656.3" font-family="Times,serif" font-size="14.00">plant_params</text>
</g>
<!-- JarsController -->
<g id="node16" class="node"><title>JarsController</title>
<path fill="none" stroke="black" d="M192,-342.5C192,-342.5 261,-342.5 261,-342.5 267,-342.5 273,-348.5 273,-354.5 273,-354.5 273,-603.5 273,-603.5 273,-609.5 267,-615.5 261,-615.5 261,-615.5 192,-615.5 192,-615.5 186,-615.5 180,-609.5 180,-603.5 180,-603.5 180,-354.5 180,-354.5 180,-348.5 186,-342.5 192,-342.5"/>
<text text-anchor="middle" x="226.5" y="-600.3" font-family="Times,serif" font-size="14.00">JarsController</text>
<polyline fill="none" stroke="black" points="180,-592.5 273,-592.5 "/>
<text text-anchor="start" x="188" y="-577.3" font-family="Times,serif" font-size="14.00">create</text>
<text text-anchor="start" x="188" y="-562.3" font-family="Times,serif" font-size="14.00">destroy</text>
<text text-anchor="start" x="188" y="-547.3" font-family="Times,serif" font-size="14.00">jar</text>
<text text-anchor="start" x="188" y="-532.3" font-family="Times,serif" font-size="14.00">jar=</text>
<text text-anchor="start" x="188" y="-517.3" font-family="Times,serif" font-size="14.00">jars</text>
<text text-anchor="start" x="188" y="-502.3" font-family="Times,serif" font-size="14.00">jars=</text>
<text text-anchor="start" x="188" y="-487.3" font-family="Times,serif" font-size="14.00">update</text>
<polyline fill="none" stroke="black" points="180,-479.5 273,-479.5 "/>
<polyline fill="none" stroke="black" points="180,-455.5 273,-455.5 "/>
<text text-anchor="start" x="188" y="-440.3" font-family="Times,serif" font-size="14.00">_layout</text>
<text text-anchor="start" x="188" y="-425.3" font-family="Times,serif" font-size="14.00">id_param</text>
<text text-anchor="start" x="188" y="-410.3" font-family="Times,serif" font-size="14.00">jar_params</text>
<text text-anchor="start" x="188" y="-395.3" font-family="Times,serif" font-size="14.00">set_name</text>
<text text-anchor="start" x="188" y="-380.3" font-family="Times,serif" font-size="14.00">set_weight</text>
<text text-anchor="start" x="188" y="-365.3" font-family="Times,serif" font-size="14.00">sort_column</text>
<text text-anchor="start" x="188" y="-350.3" font-family="Times,serif" font-size="14.00">sort_direction</text>
</g>
</g>
</svg>
