<?xml version="1.0" encoding="UTF-8" standalone="no"?>
<!DOCTYPE svg PUBLIC "-//W3C//DTD SVG 1.1//EN"
 "http://www.w3.org/Graphics/SVG/1.1/DTD/svg11.dtd">
<!-- Generated by graphviz version 2.36.0 (20140111.2315)
 -->
<!-- Title: models_diagram Pages: 1 -->
<svg width="1022pt" height="374pt"
 viewBox="0.00 0.00 1022.00 374.00" xmlns="http://www.w3.org/2000/svg" xmlns:xlink="http://www.w3.org/1999/xlink">
<g id="graph0" class="graph" transform="scale(1 1) rotate(0) translate(4 370)">
<title>models_diagram</title>
<polygon fill="white" stroke="none" points="-4,4 -4,-370 1018,-370 1018,4 -4,4"/>
<!-- _diagram_info -->
<g id="node1" class="node"><title>_diagram_info</title>
<text text-anchor="start" x="8" y="-351.6" font-family="Times,serif" font-size="13.00">Models diagram</text>
<text text-anchor="start" x="8" y="-337.6" font-family="Times,serif" font-size="13.00">Date: Jan 02 2015 &#45; 15:54</text>
<text text-anchor="start" x="8" y="-323.6" font-family="Times,serif" font-size="13.00">Migration version: 20141223044623</text>
<text text-anchor="start" x="8" y="-309.6" font-family="Times,serif" font-size="13.00">Generated by RailRoady 1.3.0</text>
<text text-anchor="start" x="8" y="-295.6" font-family="Times,serif" font-size="13.00">http://railroady.prestonlee.com</text>
</g>
<!-- Format -->
<g id="node2" class="node"><title>Format</title>
<ellipse fill="none" stroke="black" cx="268" cy="-327" rx="36.096" ry="18"/>
<text text-anchor="middle" x="268" y="-323.3" font-family="Times,serif" font-size="14.00">Format</text>
</g>
<!-- Rfid -->
<g id="node3" class="node"><title>Rfid</title>
<ellipse fill="none" stroke="black" cx="349" cy="-327" rx="27" ry="18"/>
<text text-anchor="middle" x="349" y="-323.3" font-family="Times,serif" font-size="14.00">Rfid</text>
</g>
<!-- Status -->
<g id="node4" class="node"><title>Status</title>
<ellipse fill="none" stroke="black" cx="426" cy="-327" rx="32.2457" ry="18"/>
<text text-anchor="middle" x="426" y="-323.3" font-family="Times,serif" font-size="14.00">Status</text>
</g>
<!-- OrderLine -->
<g id="node5" class="node"><title>OrderLine</title>
<ellipse fill="none" stroke="black" cx="508" cy="-234" rx="47.169" ry="18"/>
<text text-anchor="middle" x="508" y="-230.3" font-family="Times,serif" font-size="14.00">OrderLine</text>
</g>
<!-- History -->
<g id="node6" class="node"><title>History</title>
<ellipse fill="none" stroke="black" cx="627" cy="-327" rx="37.0701" ry="18"/>
<text text-anchor="middle" x="627" y="-323.3" font-family="Times,serif" font-size="14.00">History</text>
</g>
<!-- HistoryLine -->
<g id="node7" class="node"><title>HistoryLine</title>
<ellipse fill="none" stroke="black" cx="627" cy="-234" rx="52.9443" ry="18"/>
<text text-anchor="middle" x="627" y="-230.3" font-family="Times,serif" font-size="14.00">HistoryLine</text>
</g>
<!-- History&#45;&gt;HistoryLine -->
<g id="edge1" class="edge"><title>History&#45;&gt;HistoryLine</title>
<path fill="none" stroke="#82b03a" d="M627,-300.729C627,-288.725 627,-274.362 627,-262.129"/>
<ellipse fill="none" stroke="#82b03a" cx="627" cy="-304.884" rx="4" ry="4"/>
<polygon fill="#82b03a" stroke="#82b03a" points="627,-262.04 631.5,-252.04 627,-257.04 627,-252.04 627,-252.04 627,-252.04 627,-257.04 622.5,-252.04 627,-262.04 627,-262.04"/>
</g>
<!-- Cultivar -->
<g id="node8" class="node"><title>Cultivar</title>
<ellipse fill="none" stroke="black" cx="722" cy="-327" rx="39.4691" ry="18"/>
<text text-anchor="middle" x="722" y="-323.3" font-family="Times,serif" font-size="14.00">Cultivar</text>
</g>
<!-- User -->
<g id="node9" class="node"><title>User</title>
<ellipse fill="none" stroke="black" cx="807" cy="-327" rx="26.949" ry="18"/>
<text text-anchor="middle" x="807" y="-323.3" font-family="Times,serif" font-size="14.00">User</text>
</g>
<!-- Strain -->
<g id="node10" class="node"><title>Strain</title>
<ellipse fill="none" stroke="black" cx="884" cy="-327" rx="31.2735" ry="18"/>
<text text-anchor="middle" x="884" y="-323.3" font-family="Times,serif" font-size="14.00">Strain</text>
</g>
<!-- Plant -->
<g id="node12" class="node"><title>Plant</title>
<ellipse fill="none" stroke="black" cx="913" cy="-18" rx="28.3955" ry="18"/>
<text text-anchor="middle" x="913" y="-14.3" font-family="Times,serif" font-size="14.00">Plant</text>
</g>
<!-- Strain&#45;&gt;Plant -->
<g id="edge3" class="edge"><title>Strain&#45;&gt;Plant</title>
<path fill="none" stroke="#4163b3" d="M885.231,-300.861C887.634,-255.17 893.643,-155.51 904,-72 905.05,-63.5338 906.498,-54.3565 907.925,-46.0553"/>
<ellipse fill="none" stroke="#4163b3" cx="885.017" cy="-305.009" rx="4" ry="4"/>
<polygon fill="#4163b3" stroke="#4163b3" points="907.939,-45.9738 914.121,-36.9165 908.815,-41.0511 909.691,-36.1284 909.691,-36.1284 909.691,-36.1284 908.815,-41.0511 905.26,-35.3402 907.939,-45.9738 907.939,-45.9738"/>
</g>
<!-- Lot -->
<g id="node13" class="node"><title>Lot</title>
<ellipse fill="none" stroke="black" cx="930" cy="-234" rx="27" ry="18"/>
<text text-anchor="middle" x="930" y="-230.3" font-family="Times,serif" font-size="14.00">Lot</text>
</g>
<!-- Strain&#45;&gt;Lot -->
<g id="edge2" class="edge"><title>Strain&#45;&gt;Lot</title>
<path fill="none" stroke="#e1e18e" d="M896.194,-301.877C902.633,-289.139 910.534,-273.509 917.078,-260.563"/>
<ellipse fill="none" stroke="#e1e18e" cx="894.242" cy="-305.739" rx="4.00002" ry="4.00002"/>
<polygon fill="#e1e18e" stroke="#e1e18e" points="917.26,-260.203 925.787,-253.309 919.515,-255.741 921.771,-251.279 921.771,-251.279 921.771,-251.279 919.515,-255.741 917.755,-249.249 917.26,-260.203 917.26,-260.203"/>
</g>
<!-- Ability -->
<g id="node11" class="node"><title>Ability</title>
<polygon fill="none" stroke="black" points="988.25,-345 933.75,-345 933.75,-309 988.25,-309 988.25,-345"/>
<text text-anchor="middle" x="961" y="-323.3" font-family="Times,serif" font-size="14.00">Ability</text>
</g>
<!-- Lot&#45;&gt;Plant -->
<g id="edge4" class="edge"><title>Lot&#45;&gt;Plant</title>
<path fill="none" stroke="#5c4b76" d="M920.377,-208.454C917.387,-199.627 914.487,-189.502 913,-180 905.702,-133.356 908.035,-78.1753 910.466,-46.0282"/>
<ellipse fill="none" stroke="#5c4b76" cx="921.77" cy="-212.372" rx="4.00001" ry="4.00001"/>
<polygon fill="#5c4b76" stroke="#5c4b76" points="910.467,-46.0216 915.766,-36.4212 910.874,-41.0382 911.281,-36.0548 911.281,-36.0548 911.281,-36.0548 910.874,-41.0382 906.796,-35.6884 910.467,-46.0216 910.467,-46.0216"/>
</g>
<!-- Bag -->
<g id="node14" class="node"><title>Bag</title>
<ellipse fill="none" stroke="black" cx="949" cy="-162" rx="27" ry="18"/>
<text text-anchor="middle" x="949" y="-158.3" font-family="Times,serif" font-size="14.00">Bag</text>
</g>
<!-- Lot&#45;&gt;Bag -->
<g id="edge5" class="edge"><title>Lot&#45;&gt;Bag</title>
<path fill="none" stroke="#e818b8" d="M936.746,-208.146C938.381,-202.124 940.134,-195.664 941.789,-189.566"/>
<ellipse fill="none" stroke="#e818b8" cx="935.647" cy="-212.195" rx="4.00001" ry="4.00001"/>
<polygon fill="#e818b8" stroke="#e818b8" points="941.823,-189.44 948.786,-180.968 943.133,-184.614 944.443,-179.789 944.443,-179.789 944.443,-179.789 943.133,-184.614 940.1,-178.61 941.823,-189.44 941.823,-189.44"/>
</g>
<!-- Jar -->
<g id="node15" class="node"><title>Jar</title>
<ellipse fill="none" stroke="black" cx="987" cy="-90" rx="27" ry="18"/>
<text text-anchor="middle" x="987" y="-86.3" font-family="Times,serif" font-size="14.00">Jar</text>
</g>
<!-- Lot&#45;&gt;Jar -->
<g id="edge6" class="edge"><title>Lot&#45;&gt;Jar</title>
<path fill="none" stroke="#e1cb86" d="M956.865,-214.555C967.691,-205.523 979.017,-193.646 985,-180 993.56,-160.477 993.476,-136.155 991.578,-117.873"/>
<polygon fill="#e1cb86" stroke="#e1cb86" points="956.651,-214.722 946.004,-217.348 952.716,-217.806 948.78,-220.89 948.78,-220.89 948.78,-220.89 952.716,-217.806 951.555,-224.432 956.651,-214.722 956.651,-214.722"/>
<polygon fill="#e1cb86" stroke="#e1cb86" points="991.57,-117.809 994.767,-107.319 990.937,-112.849 990.303,-107.889 990.303,-107.889 990.303,-107.889 990.937,-112.849 985.839,-108.459 991.57,-117.809 991.57,-117.809"/>
</g>
<!-- Bag&#45;&gt;Plant -->
<g id="edge8" class="edge"><title>Bag&#45;&gt;Plant</title>
<path fill="none" stroke="#62307d" d="M942.233,-134.309C935.819,-109.01 926.236,-71.2082 919.808,-45.8555"/>
<polygon fill="#62307d" stroke="#62307d" points="942.271,-134.46 940.367,-145.259 943.5,-139.306 944.729,-144.153 944.729,-144.153 944.729,-144.153 943.5,-139.306 949.091,-143.047 942.271,-134.46 942.271,-134.46"/>
<polygon fill="#62307d" stroke="#62307d" points="919.723,-45.5183 921.627,-34.7191 918.494,-40.6716 917.265,-35.825 917.265,-35.825 917.265,-35.825 918.494,-40.6716 912.903,-36.9309 919.723,-45.5183 919.723,-45.5183"/>
</g>
<!-- Bag&#45;&gt;Jar -->
<g id="edge7" class="edge"><title>Bag&#45;&gt;Jar</title>
<path fill="none" stroke="#74db43" d="M961.77,-137.476C965.49,-130.623 969.569,-123.11 973.342,-116.16"/>
<ellipse fill="none" stroke="#74db43" cx="959.722" cy="-141.249" rx="4.00002" ry="4.00002"/>
<polygon fill="#74db43" stroke="#74db43" points="973.463,-115.936 982.189,-109.294 975.849,-111.542 978.234,-107.147 978.234,-107.147 978.234,-107.147 975.849,-111.542 974.279,-105 973.463,-115.936 973.463,-115.936"/>
</g>
<!-- Jar&#45;&gt;Plant -->
<g id="edge9" class="edge"><title>Jar&#45;&gt;Plant</title>
<path fill="none" stroke="#4a80a9" d="M964.681,-67.8877C955.469,-59.1733 944.807,-49.088 935.569,-40.3491"/>
<polygon fill="#4a80a9" stroke="#4a80a9" points="964.76,-67.9624 968.933,-78.1036 968.393,-71.3984 972.025,-74.8345 972.025,-74.8345 972.025,-74.8345 968.393,-71.3984 975.117,-71.5653 964.76,-67.9624 964.76,-67.9624"/>
<polygon fill="#4a80a9" stroke="#4a80a9" points="935.471,-40.2568 931.299,-30.1156 931.839,-36.8208 928.207,-33.3847 928.207,-33.3847 928.207,-33.3847 931.839,-36.8208 925.114,-36.6539 935.471,-40.2568 935.471,-40.2568"/>
</g>
<!-- Order -->
<g id="node16" class="node"><title>Order</title>
<ellipse fill="none" stroke="black" cx="508" cy="-327" rx="31.2965" ry="18"/>
<text text-anchor="middle" x="508" y="-323.3" font-family="Times,serif" font-size="14.00">Order</text>
</g>
<!-- Order&#45;&gt;OrderLine -->
<g id="edge10" class="edge"><title>Order&#45;&gt;OrderLine</title>
<path fill="none" stroke="#22496f" d="M508,-300.729C508,-288.725 508,-274.362 508,-262.129"/>
<ellipse fill="none" stroke="#22496f" cx="508" cy="-304.884" rx="4" ry="4"/>
<polygon fill="#22496f" stroke="#22496f" points="508,-262.04 512.5,-252.04 508,-257.04 508,-252.04 508,-252.04 508,-252.04 508,-257.04 503.5,-252.04 508,-262.04 508,-262.04"/>
</g>
</g>
</svg>
