<?xml version="1.0" encoding="UTF-8" standalone="no"?>
<!DOCTYPE svg PUBLIC "-//W3C//DTD SVG 1.1//EN"
 "http://www.w3.org/Graphics/SVG/1.1/DTD/svg11.dtd">
<!-- Generated by graphviz version 2.36.0 (20140111.2315)
 -->
<!-- Title: models_diagram Pages: 1 -->
<svg width="1620pt" height="1200pt"
 viewBox="0.00 0.00 1620.00 1200.00" xmlns="http://www.w3.org/2000/svg" xmlns:xlink="http://www.w3.org/1999/xlink">
<g id="graph0" class="graph" transform="scale(1 1) rotate(0) translate(4 1196)">
<title>models_diagram</title>
<polygon fill="white" stroke="none" points="-4,4 -4,-1196 1616,-1196 1616,4 -4,4"/>
<!-- Format -->
<g id="node2" class="node"><title>Format</title>
<path fill="none" stroke="black" d="M244.5,-1010.5C244.5,-1010.5 351.5,-1010.5 351.5,-1010.5 357.5,-1010.5 363.5,-1016.5 363.5,-1022.5 363.5,-1022.5 363.5,-1089.5 363.5,-1089.5 363.5,-1095.5 357.5,-1101.5 351.5,-1101.5 351.5,-1101.5 244.5,-1101.5 244.5,-1101.5 238.5,-1101.5 232.5,-1095.5 232.5,-1089.5 232.5,-1089.5 232.5,-1022.5 232.5,-1022.5 232.5,-1016.5 238.5,-1010.5 244.5,-1010.5"/>
<text text-anchor="middle" x="298" y="-1086.3" font-family="Times,serif" font-size="14.00">Format</text>
<polyline fill="none" stroke="black" points="232.5,-1078.5 363.5,-1078.5 "/>
<text text-anchor="start" x="240.5" y="-1063.3" font-family="Times,serif" font-size="14.00">id :integer</text>
<text text-anchor="start" x="240.5" y="-1048.3" font-family="Times,serif" font-size="14.00">created_at :datetime</text>
<text text-anchor="start" x="240.5" y="-1033.3" font-family="Times,serif" font-size="14.00">updated_at :datetime</text>
<text text-anchor="start" x="240.5" y="-1018.3" font-family="Times,serif" font-size="14.00">name :string</text>
</g>
<!-- Rfid -->
<g id="node3" class="node"><title>Rfid</title>
<path fill="none" stroke="black" d="M393.5,-1010.5C393.5,-1010.5 500.5,-1010.5 500.5,-1010.5 506.5,-1010.5 512.5,-1016.5 512.5,-1022.5 512.5,-1022.5 512.5,-1089.5 512.5,-1089.5 512.5,-1095.5 506.5,-1101.5 500.5,-1101.5 500.5,-1101.5 393.5,-1101.5 393.5,-1101.5 387.5,-1101.5 381.5,-1095.5 381.5,-1089.5 381.5,-1089.5 381.5,-1022.5 381.5,-1022.5 381.5,-1016.5 387.5,-1010.5 393.5,-1010.5"/>
<text text-anchor="middle" x="447" y="-1086.3" font-family="Times,serif" font-size="14.00">Rfid</text>
<polyline fill="none" stroke="black" points="381.5,-1078.5 512.5,-1078.5 "/>
<text text-anchor="start" x="389.5" y="-1063.3" font-family="Times,serif" font-size="14.00">id :integer</text>
<text text-anchor="start" x="389.5" y="-1048.3" font-family="Times,serif" font-size="14.00">created_at :datetime</text>
<text text-anchor="start" x="389.5" y="-1033.3" font-family="Times,serif" font-size="14.00">updated_at :datetime</text>
<text text-anchor="start" x="389.5" y="-1018.3" font-family="Times,serif" font-size="14.00">name :string</text>
</g>
<!-- Status -->
<g id="node4" class="node"><title>Status</title>
<path fill="none" stroke="black" d="M542.5,-1010.5C542.5,-1010.5 649.5,-1010.5 649.5,-1010.5 655.5,-1010.5 661.5,-1016.5 661.5,-1022.5 661.5,-1022.5 661.5,-1089.5 661.5,-1089.5 661.5,-1095.5 655.5,-1101.5 649.5,-1101.5 649.5,-1101.5 542.5,-1101.5 542.5,-1101.5 536.5,-1101.5 530.5,-1095.5 530.5,-1089.5 530.5,-1089.5 530.5,-1022.5 530.5,-1022.5 530.5,-1016.5 536.5,-1010.5 542.5,-1010.5"/>
<text text-anchor="middle" x="596" y="-1086.3" font-family="Times,serif" font-size="14.00">Status</text>
<polyline fill="none" stroke="black" points="530.5,-1078.5 661.5,-1078.5 "/>
<text text-anchor="start" x="538.5" y="-1063.3" font-family="Times,serif" font-size="14.00">id :integer</text>
<text text-anchor="start" x="538.5" y="-1048.3" font-family="Times,serif" font-size="14.00">created_at :datetime</text>
<text text-anchor="start" x="538.5" y="-1033.3" font-family="Times,serif" font-size="14.00">updated_at :datetime</text>
<text text-anchor="start" x="538.5" y="-1018.3" font-family="Times,serif" font-size="14.00">name :string</text>
</g>
<!-- OrderLine -->
<g id="node5" class="node"><title>OrderLine</title>
<path fill="none" stroke="black" d="M691.5,-710C691.5,-710 798.5,-710 798.5,-710 804.5,-710 810.5,-716 810.5,-722 810.5,-722 810.5,-834 810.5,-834 810.5,-840 804.5,-846 798.5,-846 798.5,-846 691.5,-846 691.5,-846 685.5,-846 679.5,-840 679.5,-834 679.5,-834 679.5,-722 679.5,-722 679.5,-716 685.5,-710 691.5,-710"/>
<text text-anchor="middle" x="745" y="-830.8" font-family="Times,serif" font-size="14.00">OrderLine</text>
<polyline fill="none" stroke="black" points="679.5,-823 810.5,-823 "/>
<text text-anchor="start" x="687.5" y="-807.8" font-family="Times,serif" font-size="14.00">id :integer</text>
<text text-anchor="start" x="687.5" y="-792.8" font-family="Times,serif" font-size="14.00">product_id :integer</text>
<text text-anchor="start" x="687.5" y="-777.8" font-family="Times,serif" font-size="14.00">product_type :string</text>
<text text-anchor="start" x="687.5" y="-762.8" font-family="Times,serif" font-size="14.00">quantity :integer</text>
<text text-anchor="start" x="687.5" y="-747.8" font-family="Times,serif" font-size="14.00">created_at :datetime</text>
<text text-anchor="start" x="687.5" y="-732.8" font-family="Times,serif" font-size="14.00">updated_at :datetime</text>
<text text-anchor="start" x="687.5" y="-717.8" font-family="Times,serif" font-size="14.00">order_id :integer</text>
</g>
<!-- History -->
<g id="node6" class="node"><title>History</title>
<path fill="none" stroke="black" d="M840.5,-1018C840.5,-1018 947.5,-1018 947.5,-1018 953.5,-1018 959.5,-1024 959.5,-1030 959.5,-1030 959.5,-1082 959.5,-1082 959.5,-1088 953.5,-1094 947.5,-1094 947.5,-1094 840.5,-1094 840.5,-1094 834.5,-1094 828.5,-1088 828.5,-1082 828.5,-1082 828.5,-1030 828.5,-1030 828.5,-1024 834.5,-1018 840.5,-1018"/>
<text text-anchor="middle" x="894" y="-1078.8" font-family="Times,serif" font-size="14.00">History</text>
<polyline fill="none" stroke="black" points="828.5,-1071 959.5,-1071 "/>
<text text-anchor="start" x="836.5" y="-1055.8" font-family="Times,serif" font-size="14.00">id :integer</text>
<text text-anchor="start" x="836.5" y="-1040.8" font-family="Times,serif" font-size="14.00">created_at :datetime</text>
<text text-anchor="start" x="836.5" y="-1025.8" font-family="Times,serif" font-size="14.00">updated_at :datetime</text>
</g>
<!-- HistoryLine -->
<g id="node7" class="node"><title>HistoryLine</title>
<path fill="none" stroke="black" d="M840.5,-695C840.5,-695 947.5,-695 947.5,-695 953.5,-695 959.5,-701 959.5,-707 959.5,-707 959.5,-849 959.5,-849 959.5,-855 953.5,-861 947.5,-861 947.5,-861 840.5,-861 840.5,-861 834.5,-861 828.5,-855 828.5,-849 828.5,-849 828.5,-707 828.5,-707 828.5,-701 834.5,-695 840.5,-695"/>
<text text-anchor="middle" x="894" y="-845.8" font-family="Times,serif" font-size="14.00">HistoryLine</text>
<polyline fill="none" stroke="black" points="828.5,-838 959.5,-838 "/>
<text text-anchor="start" x="836.5" y="-822.8" font-family="Times,serif" font-size="14.00">id :integer</text>
<text text-anchor="start" x="836.5" y="-807.8" font-family="Times,serif" font-size="14.00">history_id :integer</text>
<text text-anchor="start" x="836.5" y="-792.8" font-family="Times,serif" font-size="14.00">source_id :integer</text>
<text text-anchor="start" x="836.5" y="-777.8" font-family="Times,serif" font-size="14.00">source_type :string</text>
<text text-anchor="start" x="836.5" y="-762.8" font-family="Times,serif" font-size="14.00">target_id :integer</text>
<text text-anchor="start" x="836.5" y="-747.8" font-family="Times,serif" font-size="14.00">target_type :string</text>
<text text-anchor="start" x="836.5" y="-732.8" font-family="Times,serif" font-size="14.00">quantity :integer</text>
<text text-anchor="start" x="836.5" y="-717.8" font-family="Times,serif" font-size="14.00">created_at :datetime</text>
<text text-anchor="start" x="836.5" y="-702.8" font-family="Times,serif" font-size="14.00">updated_at :datetime</text>
</g>
<!-- History&#45;&gt;HistoryLine -->
<g id="edge1" class="edge"><title>History&#45;&gt;HistoryLine</title>
<path fill="none" stroke="#2276a6" d="M894,-1009.75C894,-972.287 894,-917.837 894,-871.237"/>
<ellipse fill="none" stroke="#2276a6" cx="894" cy="-1013.78" rx="4" ry="4"/>
<polygon fill="#2276a6" stroke="#2276a6" points="894,-871.116 898.5,-861.116 894,-866.116 894,-861.116 894,-861.116 894,-861.116 894,-866.116 889.5,-861.116 894,-871.116 894,-871.116"/>
</g>
<!-- Cultivar -->
<g id="node8" class="node"><title>Cultivar</title>
<path fill="none" stroke="black" d="M989.5,-1010.5C989.5,-1010.5 1096.5,-1010.5 1096.5,-1010.5 1102.5,-1010.5 1108.5,-1016.5 1108.5,-1022.5 1108.5,-1022.5 1108.5,-1089.5 1108.5,-1089.5 1108.5,-1095.5 1102.5,-1101.5 1096.5,-1101.5 1096.5,-1101.5 989.5,-1101.5 989.5,-1101.5 983.5,-1101.5 977.5,-1095.5 977.5,-1089.5 977.5,-1089.5 977.5,-1022.5 977.5,-1022.5 977.5,-1016.5 983.5,-1010.5 989.5,-1010.5"/>
<text text-anchor="middle" x="1043" y="-1086.3" font-family="Times,serif" font-size="14.00">Cultivar</text>
<polyline fill="none" stroke="black" points="977.5,-1078.5 1108.5,-1078.5 "/>
<text text-anchor="start" x="985.5" y="-1063.3" font-family="Times,serif" font-size="14.00">id :integer</text>
<text text-anchor="start" x="985.5" y="-1048.3" font-family="Times,serif" font-size="14.00">created_at :datetime</text>
<text text-anchor="start" x="985.5" y="-1033.3" font-family="Times,serif" font-size="14.00">updated_at :datetime</text>
<text text-anchor="start" x="985.5" y="-1018.3" font-family="Times,serif" font-size="14.00">name :string</text>
</g>
<!-- User -->
<g id="node9" class="node"><title>User</title>
<path fill="none" stroke="black" d="M1139,-920.5C1139,-920.5 1315,-920.5 1315,-920.5 1321,-920.5 1327,-926.5 1327,-932.5 1327,-932.5 1327,-1179.5 1327,-1179.5 1327,-1185.5 1321,-1191.5 1315,-1191.5 1315,-1191.5 1139,-1191.5 1139,-1191.5 1133,-1191.5 1127,-1185.5 1127,-1179.5 1127,-1179.5 1127,-932.5 1127,-932.5 1127,-926.5 1133,-920.5 1139,-920.5"/>
<text text-anchor="middle" x="1227" y="-1176.3" font-family="Times,serif" font-size="14.00">User</text>
<polyline fill="none" stroke="black" points="1127,-1168.5 1327,-1168.5 "/>
<text text-anchor="start" x="1135" y="-1153.3" font-family="Times,serif" font-size="14.00">id :integer</text>
<text text-anchor="start" x="1135" y="-1138.3" font-family="Times,serif" font-size="14.00">name :string</text>
<text text-anchor="start" x="1135" y="-1123.3" font-family="Times,serif" font-size="14.00">created_at :datetime</text>
<text text-anchor="start" x="1135" y="-1108.3" font-family="Times,serif" font-size="14.00">updated_at :datetime</text>
<text text-anchor="start" x="1135" y="-1093.3" font-family="Times,serif" font-size="14.00">email :string</text>
<text text-anchor="start" x="1135" y="-1078.3" font-family="Times,serif" font-size="14.00">encrypted_password :string</text>
<text text-anchor="start" x="1135" y="-1063.3" font-family="Times,serif" font-size="14.00">reset_password_token :string</text>
<text text-anchor="start" x="1135" y="-1048.3" font-family="Times,serif" font-size="14.00">reset_password_sent_at :datetime</text>
<text text-anchor="start" x="1135" y="-1033.3" font-family="Times,serif" font-size="14.00">remember_created_at :datetime</text>
<text text-anchor="start" x="1135" y="-1018.3" font-family="Times,serif" font-size="14.00">sign_in_count :integer</text>
<text text-anchor="start" x="1135" y="-1003.3" font-family="Times,serif" font-size="14.00">current_sign_in_at :datetime</text>
<text text-anchor="start" x="1135" y="-988.3" font-family="Times,serif" font-size="14.00">last_sign_in_at :datetime</text>
<text text-anchor="start" x="1135" y="-973.3" font-family="Times,serif" font-size="14.00">current_sign_in_ip :string</text>
<text text-anchor="start" x="1135" y="-958.3" font-family="Times,serif" font-size="14.00">last_sign_in_ip :string</text>
<text text-anchor="start" x="1135" y="-943.3" font-family="Times,serif" font-size="14.00">user_group_id :integer</text>
<text text-anchor="start" x="1135" y="-928.3" font-family="Times,serif" font-size="14.00">user_role_id :integer</text>
</g>
<!-- Strain -->
<g id="node10" class="node"><title>Strain</title>
<path fill="none" stroke="black" d="M1357.5,-995.5C1357.5,-995.5 1464.5,-995.5 1464.5,-995.5 1470.5,-995.5 1476.5,-1001.5 1476.5,-1007.5 1476.5,-1007.5 1476.5,-1104.5 1476.5,-1104.5 1476.5,-1110.5 1470.5,-1116.5 1464.5,-1116.5 1464.5,-1116.5 1357.5,-1116.5 1357.5,-1116.5 1351.5,-1116.5 1345.5,-1110.5 1345.5,-1104.5 1345.5,-1104.5 1345.5,-1007.5 1345.5,-1007.5 1345.5,-1001.5 1351.5,-995.5 1357.5,-995.5"/>
<text text-anchor="middle" x="1411" y="-1101.3" font-family="Times,serif" font-size="14.00">Strain</text>
<polyline fill="none" stroke="black" points="1345.5,-1093.5 1476.5,-1093.5 "/>
<text text-anchor="start" x="1353.5" y="-1078.3" font-family="Times,serif" font-size="14.00">id :integer</text>
<text text-anchor="start" x="1353.5" y="-1063.3" font-family="Times,serif" font-size="14.00">name :string</text>
<text text-anchor="start" x="1353.5" y="-1048.3" font-family="Times,serif" font-size="14.00">acronym :string</text>
<text text-anchor="start" x="1353.5" y="-1033.3" font-family="Times,serif" font-size="14.00">info :string</text>
<text text-anchor="start" x="1353.5" y="-1018.3" font-family="Times,serif" font-size="14.00">created_at :datetime</text>
<text text-anchor="start" x="1353.5" y="-1003.3" font-family="Times,serif" font-size="14.00">updated_at :datetime</text>
</g>
<!-- Plant -->
<g id="node12" class="node"><title>Plant</title>
<path fill="none" stroke="black" d="M1357.5,-1C1357.5,-1 1476.5,-1 1476.5,-1 1482.5,-1 1488.5,-7 1488.5,-13 1488.5,-13 1488.5,-215 1488.5,-215 1488.5,-221 1482.5,-227 1476.5,-227 1476.5,-227 1357.5,-227 1357.5,-227 1351.5,-227 1345.5,-221 1345.5,-215 1345.5,-215 1345.5,-13 1345.5,-13 1345.5,-7 1351.5,-1 1357.5,-1"/>
<text text-anchor="middle" x="1417" y="-211.8" font-family="Times,serif" font-size="14.00">Plant</text>
<polyline fill="none" stroke="black" points="1345.5,-204 1488.5,-204 "/>
<text text-anchor="start" x="1353.5" y="-188.8" font-family="Times,serif" font-size="14.00">id :integer</text>
<text text-anchor="start" x="1353.5" y="-173.8" font-family="Times,serif" font-size="14.00">created_at :datetime</text>
<text text-anchor="start" x="1353.5" y="-158.8" font-family="Times,serif" font-size="14.00">updated_at :datetime</text>
<text text-anchor="start" x="1353.5" y="-143.8" font-family="Times,serif" font-size="14.00">lot_id :integer</text>
<text text-anchor="start" x="1353.5" y="-128.8" font-family="Times,serif" font-size="14.00">strain_id :integer</text>
<text text-anchor="start" x="1353.5" y="-113.8" font-family="Times,serif" font-size="14.00">format_id :integer</text>
<text text-anchor="start" x="1353.5" y="-98.8" font-family="Times,serif" font-size="14.00">status_id :integer</text>
<text text-anchor="start" x="1353.5" y="-83.8" font-family="Times,serif" font-size="14.00">rfid_id :integer</text>
<text text-anchor="start" x="1353.5" y="-68.8" font-family="Times,serif" font-size="14.00">origin :string</text>
<text text-anchor="start" x="1353.5" y="-53.8" font-family="Times,serif" font-size="14.00">name :string</text>
<text text-anchor="start" x="1353.5" y="-38.8" font-family="Times,serif" font-size="14.00">history_id :integer</text>
<text text-anchor="start" x="1353.5" y="-23.8" font-family="Times,serif" font-size="14.00">current_weight :integer</text>
<text text-anchor="start" x="1353.5" y="-8.8" font-family="Times,serif" font-size="14.00">initial_weight :integer</text>
</g>
<!-- Strain&#45;&gt;Plant -->
<g id="edge3" class="edge"><title>Strain&#45;&gt;Plant</title>
<path fill="none" stroke="#0e5289" d="M1404.96,-987.058C1402.4,-955.71 1399.63,-917.988 1398,-884 1384.77,-608.745 1367.23,-538.546 1391,-264 1391.77,-255.162 1392.78,-246.063 1393.97,-236.924"/>
<ellipse fill="none" stroke="#0e5289" cx="1405.31" cy="-991.316" rx="4" ry="4"/>
<polygon fill="#0e5289" stroke="#0e5289" points="1393.97,-236.911 1399.78,-227.61 1394.65,-231.957 1395.32,-227.003 1395.32,-227.003 1395.32,-227.003 1394.65,-231.957 1390.86,-226.395 1393.97,-236.911 1393.97,-236.911"/>
</g>
<!-- Lot -->
<g id="node13" class="node"><title>Lot</title>
<path fill="none" stroke="black" d="M1418.5,-672.5C1418.5,-672.5 1543.5,-672.5 1543.5,-672.5 1549.5,-672.5 1555.5,-678.5 1555.5,-684.5 1555.5,-684.5 1555.5,-871.5 1555.5,-871.5 1555.5,-877.5 1549.5,-883.5 1543.5,-883.5 1543.5,-883.5 1418.5,-883.5 1418.5,-883.5 1412.5,-883.5 1406.5,-877.5 1406.5,-871.5 1406.5,-871.5 1406.5,-684.5 1406.5,-684.5 1406.5,-678.5 1412.5,-672.5 1418.5,-672.5"/>
<text text-anchor="middle" x="1481" y="-868.3" font-family="Times,serif" font-size="14.00">Lot</text>
<polyline fill="none" stroke="black" points="1406.5,-860.5 1555.5,-860.5 "/>
<text text-anchor="start" x="1414.5" y="-845.3" font-family="Times,serif" font-size="14.00">id :integer</text>
<text text-anchor="start" x="1414.5" y="-830.3" font-family="Times,serif" font-size="14.00">created_at :datetime</text>
<text text-anchor="start" x="1414.5" y="-815.3" font-family="Times,serif" font-size="14.00">updated_at :datetime</text>
<text text-anchor="start" x="1414.5" y="-800.3" font-family="Times,serif" font-size="14.00">name :string</text>
<text text-anchor="start" x="1414.5" y="-785.3" font-family="Times,serif" font-size="14.00">category :string</text>
<text text-anchor="start" x="1414.5" y="-770.3" font-family="Times,serif" font-size="14.00">strain :string</text>
<text text-anchor="start" x="1414.5" y="-755.3" font-family="Times,serif" font-size="14.00">origin :integer</text>
<text text-anchor="start" x="1414.5" y="-740.3" font-family="Times,serif" font-size="14.00">current_weight :decimal</text>
<text text-anchor="start" x="1414.5" y="-725.3" font-family="Times,serif" font-size="14.00">initial_weight :decimal</text>
<text text-anchor="start" x="1414.5" y="-710.3" font-family="Times,serif" font-size="14.00">plant_id :integer</text>
<text text-anchor="start" x="1414.5" y="-695.3" font-family="Times,serif" font-size="14.00">history_id :integer</text>
<text text-anchor="start" x="1414.5" y="-680.3" font-family="Times,serif" font-size="14.00">strain_id :integer</text>
</g>
<!-- Strain&#45;&gt;Lot -->
<g id="edge2" class="edge"><title>Strain&#45;&gt;Lot</title>
<path fill="none" stroke="#5c2a16" d="M1428.08,-987.646C1435.27,-959.291 1443.85,-925.488 1451.98,-893.432"/>
<ellipse fill="none" stroke="#5c2a16" cx="1427.09" cy="-991.575" rx="4.00001" ry="4.00001"/>
<polygon fill="#5c2a16" stroke="#5c2a16" points="1452.03,-893.241 1458.85,-884.655 1453.25,-888.395 1454.48,-883.548 1454.48,-883.548 1454.48,-883.548 1453.25,-888.395 1450.12,-882.442 1452.03,-893.241 1452.03,-893.241"/>
</g>
<!-- Ability -->
<g id="node11" class="node"><title>Ability</title>
<polygon fill="none" stroke="black" points="1494.5,-1033 1494.5,-1079 1549.5,-1079 1549.5,-1033 1494.5,-1033"/>
<text text-anchor="middle" x="1522" y="-1063.8" font-family="Times,serif" font-size="14.00">Ability</text>
<polyline fill="none" stroke="black" points="1494.5,-1056 1549.5,-1056 "/>
<text text-anchor="middle" x="1522" y="-1040.8" font-family="Times,serif" font-size="14.00"> </text>
</g>
<!-- Lot&#45;&gt;Plant -->
<g id="edge4" class="edge"><title>Lot&#45;&gt;Plant</title>
<path fill="none" stroke="#d6419d" d="M1425.05,-664.773C1421.83,-655.204 1419.06,-645.537 1417,-636 1388,-501.968 1393.35,-343.96 1402.54,-237.383"/>
<ellipse fill="none" stroke="#d6419d" cx="1426.41" cy="-668.646" rx="4.00001" ry="4.00001"/>
<polygon fill="#d6419d" stroke="#d6419d" points="1402.55,-237.193 1407.92,-227.63 1402.99,-232.213 1403.44,-227.232 1403.44,-227.232 1403.44,-227.232 1402.99,-232.213 1398.95,-226.835 1402.55,-237.193 1402.55,-237.193"/>
</g>
<!-- Bag -->
<g id="node14" class="node"><title>Bag</title>
<path fill="none" stroke="black" d="M1437.5,-469C1437.5,-469 1562.5,-469 1562.5,-469 1568.5,-469 1574.5,-475 1574.5,-481 1574.5,-481 1574.5,-623 1574.5,-623 1574.5,-629 1568.5,-635 1562.5,-635 1562.5,-635 1437.5,-635 1437.5,-635 1431.5,-635 1425.5,-629 1425.5,-623 1425.5,-623 1425.5,-481 1425.5,-481 1425.5,-475 1431.5,-469 1437.5,-469"/>
<text text-anchor="middle" x="1500" y="-619.8" font-family="Times,serif" font-size="14.00">Bag</text>
<polyline fill="none" stroke="black" points="1425.5,-612 1574.5,-612 "/>
<text text-anchor="start" x="1433.5" y="-596.8" font-family="Times,serif" font-size="14.00">id :integer</text>
<text text-anchor="start" x="1433.5" y="-581.8" font-family="Times,serif" font-size="14.00">created_at :datetime</text>
<text text-anchor="start" x="1433.5" y="-566.8" font-family="Times,serif" font-size="14.00">updated_at :datetime</text>
<text text-anchor="start" x="1433.5" y="-551.8" font-family="Times,serif" font-size="14.00">lot_id :integer</text>
<text text-anchor="start" x="1433.5" y="-536.8" font-family="Times,serif" font-size="14.00">name :string</text>
<text text-anchor="start" x="1433.5" y="-521.8" font-family="Times,serif" font-size="14.00">origin :integer</text>
<text text-anchor="start" x="1433.5" y="-506.8" font-family="Times,serif" font-size="14.00">current_weight :decimal</text>
<text text-anchor="start" x="1433.5" y="-491.8" font-family="Times,serif" font-size="14.00">initial_weight :decimal</text>
<text text-anchor="start" x="1433.5" y="-476.8" font-family="Times,serif" font-size="14.00">history_id :integer</text>
</g>
<!-- Lot&#45;&gt;Bag -->
<g id="edge5" class="edge"><title>Lot&#45;&gt;Bag</title>
<path fill="none" stroke="#e2ebaf" d="M1490.58,-664.059C1491.11,-657.836 1491.64,-651.617 1492.16,-645.478"/>
<ellipse fill="none" stroke="#e2ebaf" cx="1490.23" cy="-668.229" rx="4" ry="4"/>
<polygon fill="#e2ebaf" stroke="#e2ebaf" points="1492.18,-645.202 1497.51,-635.618 1492.6,-640.22 1493.02,-635.238 1493.02,-635.238 1493.02,-635.238 1492.6,-640.22 1488.54,-634.858 1492.18,-645.202 1492.18,-645.202"/>
</g>
<!-- Jar -->
<g id="node15" class="node"><title>Jar</title>
<path fill="none" stroke="black" d="M1475.5,-265C1475.5,-265 1600.5,-265 1600.5,-265 1606.5,-265 1612.5,-271 1612.5,-277 1612.5,-277 1612.5,-419 1612.5,-419 1612.5,-425 1606.5,-431 1600.5,-431 1600.5,-431 1475.5,-431 1475.5,-431 1469.5,-431 1463.5,-425 1463.5,-419 1463.5,-419 1463.5,-277 1463.5,-277 1463.5,-271 1469.5,-265 1475.5,-265"/>
<text text-anchor="middle" x="1538" y="-415.8" font-family="Times,serif" font-size="14.00">Jar</text>
<polyline fill="none" stroke="black" points="1463.5,-408 1612.5,-408 "/>
<text text-anchor="start" x="1471.5" y="-392.8" font-family="Times,serif" font-size="14.00">id :integer</text>
<text text-anchor="start" x="1471.5" y="-377.8" font-family="Times,serif" font-size="14.00">created_at :datetime</text>
<text text-anchor="start" x="1471.5" y="-362.8" font-family="Times,serif" font-size="14.00">updated_at :datetime</text>
<text text-anchor="start" x="1471.5" y="-347.8" font-family="Times,serif" font-size="14.00">bag_id :integer</text>
<text text-anchor="start" x="1471.5" y="-332.8" font-family="Times,serif" font-size="14.00">name :string</text>
<text text-anchor="start" x="1471.5" y="-317.8" font-family="Times,serif" font-size="14.00">origin :integer</text>
<text text-anchor="start" x="1471.5" y="-302.8" font-family="Times,serif" font-size="14.00">current_weight :decimal</text>
<text text-anchor="start" x="1471.5" y="-287.8" font-family="Times,serif" font-size="14.00">initial_weight :decimal</text>
<text text-anchor="start" x="1471.5" y="-272.8" font-family="Times,serif" font-size="14.00">history_id :integer</text>
</g>
<!-- Lot&#45;&gt;Jar -->
<g id="edge6" class="edge"><title>Lot&#45;&gt;Jar</title>
<path fill="none" stroke="#5b0ace" d="M1560.95,-682.769C1569.97,-667.902 1577.79,-652.099 1583,-636 1606,-564.964 1596.42,-541.45 1583,-468 1581.37,-459.065 1579.1,-449.929 1576.44,-440.888"/>
<polygon fill="#5b0ace" stroke="#5b0ace" points="1560.83,-682.949 1551.69,-689.01 1558.17,-687.179 1555.5,-691.409 1555.5,-691.409 1555.5,-691.409 1558.17,-687.179 1559.31,-693.809 1560.83,-682.949 1560.83,-682.949"/>
<polygon fill="#5b0ace" stroke="#5b0ace" points="1576.37,-440.68 1577.71,-429.796 1574.89,-435.904 1573.41,-431.129 1573.41,-431.129 1573.41,-431.129 1574.89,-435.904 1569.11,-432.462 1576.37,-440.68 1576.37,-440.68"/>
</g>
<!-- Bag&#45;&gt;Plant -->
<g id="edge8" class="edge"><title>Bag&#45;&gt;Plant</title>
<path fill="none" stroke="#05fe3c" d="M1462.85,-459.403C1459.9,-450.237 1457.21,-440.996 1455,-432 1439.5,-368.769 1430.22,-296.829 1424.72,-237.483"/>
<polygon fill="#05fe3c" stroke="#05fe3c" points="1462.86,-459.426 1461.75,-470.336 1464.44,-464.17 1466.02,-468.913 1466.02,-468.913 1466.02,-468.913 1464.44,-464.17 1470.29,-467.491 1462.86,-459.426 1462.86,-459.426"/>
<polygon fill="#05fe3c" stroke="#05fe3c" points="1424.7,-237.273 1428.29,-226.91 1424.25,-232.294 1423.8,-227.314 1423.8,-227.314 1423.8,-227.314 1424.25,-232.294 1419.32,-227.718 1424.7,-237.273 1424.7,-237.273"/>
</g>
<!-- Bag&#45;&gt;Jar -->
<g id="edge7" class="edge"><title>Bag&#45;&gt;Jar</title>
<path fill="none" stroke="#49c5cf" d="M1516.95,-460.914C1518.17,-454.397 1519.41,-447.82 1520.64,-441.291"/>
<ellipse fill="none" stroke="#49c5cf" cx="1516.2" cy="-464.908" rx="4.00001" ry="4.00001"/>
<polygon fill="#49c5cf" stroke="#49c5cf" points="1520.71,-440.916 1526.98,-431.92 1521.63,-436.002 1522.56,-431.088 1522.56,-431.088 1522.56,-431.088 1521.63,-436.002 1518.14,-430.256 1520.71,-440.916 1520.71,-440.916"/>
</g>
<!-- Jar&#45;&gt;Plant -->
<g id="edge9" class="edge"><title>Jar&#45;&gt;Plant</title>
<path fill="none" stroke="#1828bf" d="M1490.48,-255.888C1487.09,-249.384 1483.64,-242.77 1480.18,-236.133"/>
<polygon fill="#1828bf" stroke="#1828bf" points="1490.55,-256.012 1491.18,-266.96 1492.86,-260.446 1495.17,-264.879 1495.17,-264.879 1495.17,-264.879 1492.86,-260.446 1499.16,-262.798 1490.55,-256.012 1490.55,-256.012"/>
<polygon fill="#1828bf" stroke="#1828bf" points="1480.08,-235.944 1479.44,-224.997 1477.77,-231.511 1475.45,-227.078 1475.45,-227.078 1475.45,-227.078 1477.77,-231.511 1471.46,-229.159 1480.08,-235.944 1480.08,-235.944"/>
</g>
<!-- Order -->
<g id="node16" class="node"><title>Order</title>
<path fill="none" stroke="black" d="M691.5,-995.5C691.5,-995.5 798.5,-995.5 798.5,-995.5 804.5,-995.5 810.5,-1001.5 810.5,-1007.5 810.5,-1007.5 810.5,-1104.5 810.5,-1104.5 810.5,-1110.5 804.5,-1116.5 798.5,-1116.5 798.5,-1116.5 691.5,-1116.5 691.5,-1116.5 685.5,-1116.5 679.5,-1110.5 679.5,-1104.5 679.5,-1104.5 679.5,-1007.5 679.5,-1007.5 679.5,-1001.5 685.5,-995.5 691.5,-995.5"/>
<text text-anchor="middle" x="745" y="-1101.3" font-family="Times,serif" font-size="14.00">Order</text>
<polyline fill="none" stroke="black" points="679.5,-1093.5 810.5,-1093.5 "/>
<text text-anchor="start" x="687.5" y="-1078.3" font-family="Times,serif" font-size="14.00">id :integer</text>
<text text-anchor="start" x="687.5" y="-1063.3" font-family="Times,serif" font-size="14.00">customer :string</text>
<text text-anchor="start" x="687.5" y="-1048.3" font-family="Times,serif" font-size="14.00">created_at :datetime</text>
<text text-anchor="start" x="687.5" y="-1033.3" font-family="Times,serif" font-size="14.00">updated_at :datetime</text>
<text text-anchor="start" x="687.5" y="-1018.3" font-family="Times,serif" font-size="14.00">ordered_at :datetime</text>
<text text-anchor="start" x="687.5" y="-1003.3" font-family="Times,serif" font-size="14.00">shipped_at :datetime</text>
</g>
<!-- Order&#45;&gt;OrderLine -->
<g id="edge10" class="edge"><title>Order&#45;&gt;OrderLine</title>
<path fill="none" stroke="#a6ae28" d="M745,-987.311C745,-947.726 745,-897.61 745,-856.455"/>
<ellipse fill="none" stroke="#a6ae28" cx="745" cy="-991.452" rx="4" ry="4"/>
<polygon fill="#a6ae28" stroke="#a6ae28" points="745,-856.197 749.5,-846.197 745,-851.197 745,-846.197 745,-846.197 745,-846.197 745,-851.197 740.5,-846.197 745,-856.197 745,-856.197"/>
</g>
</g>
</svg>
